<svg width="64" height="64" viewBox="0 0 64 64" fill="none" xmlns="http://www.w3.org/2000/svg">
<path d="M29.5659 41.8356C29.2687 41.8672 29.0024 41.6501 28.9711 41.3508L28.002 32.0829C27.9708 31.7838 28.1864 31.5156 28.4836 31.4841L29.0218 31.4271C29.319 31.3956 29.5854 31.6127 29.6166 31.9119L30.5857 41.1797C30.617 41.479 30.4015 41.7471 30.1042 41.7786L29.5659 41.8356Z" fill="#64748b" stroke="black" stroke-width="0.000316832"/>
<path d="M34.4366 41.7786C34.1393 41.7471 33.9237 41.479 33.955 41.1797L34.924 31.9119C34.9554 31.6127 35.2216 31.3956 35.5189 31.4271L36.057 31.4841C36.3543 31.5156 36.57 31.7838 36.5386 32.0829L35.5696 41.3508C35.5383 41.6501 35.272 41.8672 34.9747 41.8356L34.4366 41.7786Z" fill="#64748b" stroke="black" stroke-width="0.000316832"/>
<path fill-rule="evenodd" clip-rule="evenodd" d="M29.6501 17.29C29.0007 17.29 28.4137 17.6797 28.1578 18.2806L26.9561 21.1038H21.7177C20.5222 21.1038 19.553 22.0794 19.553 23.283V26.0071C19.553 27.1177 20.3783 28.0344 21.4452 28.1692L24.7913 45.8342C24.8925 46.3435 25.3367 46.7101 25.8527 46.7101H39.1861C39.7219 46.7101 40.177 46.3156 40.2564 45.7821L42.6893 28.1479C43.6903 27.9562 44.447 27.0706 44.447 26.0071V23.283C44.447 22.0794 43.4778 21.1038 42.2823 21.1038H37.0423L35.8405 18.2806C35.5846 17.6797 34.9977 17.29 34.3482 17.29H29.6501ZM34.6871 21.1038L34.2725 20.1297C34.102 19.7291 33.7106 19.4693 33.2776 19.4693H30.7207C30.2877 19.4693 29.8965 19.7291 29.7258 20.1297L29.3112 21.1038H34.6871ZM40.4519 28.6638C40.4897 28.3914 40.2777 28.1484 40.0026 28.1491L24.2085 28.1851C23.9254 28.1858 23.7124 28.4432 23.7648 28.7214L26.5664 43.6086C26.6671 44.1434 27.1342 44.5309 27.6784 44.5309H37.2683C37.8333 44.5309 38.3117 44.1141 38.3892 43.5546L40.4519 28.6638ZM41.1999 26.0071C41.7977 26.0071 42.2823 25.5193 42.2823 24.9175V24.3727C42.2823 23.7709 41.7977 23.283 41.1999 23.283H22.8001C22.2023 23.283 21.7177 23.7709 21.7177 24.3727V24.9175C21.7177 25.5193 22.2023 26.0071 22.8001 26.0071H41.1999Z" fill="#64748b" stroke="black" stroke-width="0.000316832"/>
</svg>
