<?xml version="1.0" standalone="no"?>
<!DOCTYPE svg PUBLIC "-//W3C//DTD SVG 20010904//EN"
 "http://www.w3.org/TR/2001/REC-SVG-20010904/DTD/svg10.dtd">
<svg version="1.0" xmlns="http://www.w3.org/2000/svg"
 width="1697.000000pt" height="1645.000000pt" viewBox="0 0 1697.000000 1645.000000"
 preserveAspectRatio="xMidYMid meet">

<g transform="translate(0.000000,1645.000000) scale(0.100000,-0.100000)"
fill="#000000" stroke="none">
<path d="M9960 16413 c-267 -8 -577 -41 -915 -97 -116 -19 -235 -37 -265 -41
-221 -27 -460 -76 -590 -120 -41 -14 -163 -50 -270 -80 -367 -102 -942 -309
-1256 -452 -215 -98 -725 -357 -814 -413 -41 -26 -151 -89 -245 -140 -176 -96
-438 -265 -513 -331 -24 -21 -58 -43 -75 -48 -18 -6 -156 -26 -307 -46 -455
-58 -938 -156 -1257 -256 -634 -197 -1158 -416 -1573 -657 -133 -78 -409 -262
-510 -341 -47 -36 -112 -86 -145 -111 -231 -171 -432 -368 -770 -755 -150
-171 -375 -484 -406 -565 -30 -77 -29 -159 4 -232 28 -62 63 -88 119 -88 49 0
171 36 241 72 74 37 288 115 372 135 33 8 94 24 135 34 41 11 129 28 195 39
66 12 152 28 190 38 137 33 415 15 830 -54 116 -19 301 -76 390 -121 160 -80
332 -220 408 -332 66 -98 96 -184 97 -278 0 -82 13 -103 64 -103 43 0 91 51
189 200 109 167 235 337 345 469 53 64 128 154 167 201 38 46 122 141 185 210
64 69 133 148 155 175 176 222 717 735 981 930 43 32 113 86 154 120 41 34
134 102 205 150 72 49 157 110 190 137 154 123 468 336 598 407 43 23 110 64
150 90 40 27 113 69 162 94 404 203 631 314 700 339 595 221 921 332 1142 387
332 84 600 143 863 190 294 53 258 48 475 65 412 32 802 30 1151 -4 151 -16
552 -102 684 -148 340 -119 462 -166 590 -232 162 -82 648 -286 787 -329 213
-67 429 -118 568 -135 175 -21 532 -22 632 -1 104 22 175 51 208 85 24 25 27
35 22 70 -6 47 -23 73 -141 221 -380 473 -702 754 -1146 999 -293 162 -606
299 -851 374 -109 32 -456 119 -659 164 -183 41 -387 71 -595 87 -115 9 -257
21 -315 25 -95 8 -517 10 -730 3z"/>
<path d="M10890 14631 c-47 -8 -172 -84 -211 -129 -18 -20 -46 -66 -63 -102
-29 -62 -31 -71 -30 -180 1 -95 5 -124 23 -165 12 -27 26 -52 31 -55 5 -3 10
-12 12 -20 6 -28 58 -99 91 -124 43 -33 124 -69 137 -61 6 3 10 2 10 -3 0 -8
86 -15 195 -16 67 -1 176 50 229 107 21 23 35 35 31 27 -5 -8 8 0 27 18 24 23
47 61 68 115 30 75 32 88 28 172 -4 91 -26 156 -67 196 -26 26 -51 59 -46 59
18 0 -118 120 -142 125 -15 4 -39 11 -52 16 -21 9 -74 15 -191 22 -25 2 -61 1
-80 -2z"/>
<path d="M15279 14490 c-22 -11 -63 -56 -108 -115 -90 -120 -193 -229 -288
-305 -94 -76 -352 -203 -467 -230 -86 -20 -279 -43 -506 -60 -74 -5 -178 -14
-230 -20 -52 -5 -153 -14 -225 -20 -201 -16 -835 -121 -1215 -201 -372 -79
-843 -226 -1170 -366 -162 -69 -539 -258 -747 -375 -142 -79 -381 -230 -468
-296 -605 -460 -874 -713 -1272 -1198 -149 -183 -228 -291 -343 -474 -40 -63
-116 -178 -170 -255 -167 -239 -463 -751 -643 -1110 -134 -268 -471 -846 -650
-1115 -244 -367 -514 -716 -742 -959 -100 -107 -148 -176 -179 -253 -34 -86
-35 -161 -3 -209 33 -50 80 -62 200 -54 91 7 105 11 190 55 260 133 376 195
424 226 29 18 84 49 122 68 85 44 493 294 659 404 143 96 554 401 692 512 52
43 165 142 250 221 86 79 193 178 239 219 170 153 492 515 662 745 40 55 141
186 224 290 83 105 175 224 205 265 29 41 117 151 194 245 78 93 166 204 196
245 30 41 91 113 135 160 44 47 137 148 207 225 454 501 801 796 1348 1150
166 108 263 162 425 238 272 128 792 338 965 388 446 130 917 235 1235 274 66
8 170 23 230 34 146 27 494 74 630 86 39 3 169 17 290 30 121 13 276 28 345
35 301 27 562 101 722 204 65 42 89 67 167 178 86 122 121 229 121 368 0 125
-18 199 -73 304 -71 135 -231 272 -392 336 -135 55 -217 71 -405 81 -96 5
-273 18 -392 29 -273 25 -342 25 -389 0z"/>
<path d="M8965 14296 c-237 -43 -424 -93 -655 -175 -30 -11 -100 -34 -155 -51
-55 -18 -176 -65 -270 -105 -93 -40 -181 -76 -195 -80 -14 -4 -45 -18 -70 -31
-25 -13 -103 -50 -175 -82 -128 -57 -344 -176 -560 -308 -243 -148 -432 -267
-465 -292 -19 -15 -53 -38 -76 -52 -72 -43 -216 -141 -278 -188 -33 -25 -79
-60 -102 -76 -24 -17 -70 -50 -103 -73 -33 -24 -63 -47 -66 -53 -3 -6 -31 -26
-62 -46 -30 -19 -88 -65 -128 -102 -159 -146 -245 -222 -370 -324 -123 -102
-426 -398 -530 -518 -26 -30 -67 -77 -91 -105 -99 -115 -141 -165 -184 -218
-25 -32 -83 -104 -130 -161 -47 -58 -96 -121 -110 -140 -14 -20 -47 -64 -73
-98 -27 -33 -63 -84 -82 -112 -19 -28 -48 -69 -64 -91 -32 -43 -180 -256 -196
-284 -5 -9 -21 -34 -36 -56 -24 -37 -52 -87 -104 -184 -11 -21 -26 -46 -33
-54 -19 -23 -266 -513 -312 -622 -22 -49 -51 -112 -65 -139 -14 -27 -25 -56
-25 -63 0 -8 -6 -24 -14 -36 -38 -59 -220 -560 -276 -762 -5 -16 -18 -64 -30
-105 -20 -69 -46 -165 -71 -265 -14 -56 -24 -105 -44 -210 -9 -49 -18 -92 -21
-96 -5 -9 -32 -177 -45 -279 -19 -157 -39 -533 -39 -736 0 -230 22 -601 44
-759 8 -55 17 -125 21 -155 3 -30 13 -82 20 -115 8 -33 26 -114 41 -180 35
-165 64 -274 149 -555 20 -67 105 -310 120 -345 13 -29 22 -50 101 -240 69
-166 172 -374 228 -460 31 -47 67 -107 80 -134 14 -26 36 -61 49 -77 13 -16
38 -55 56 -86 66 -118 348 -484 471 -613 37 -38 86 -90 108 -114 23 -24 42
-47 42 -50 0 -4 64 -63 142 -132 78 -68 169 -148 202 -178 34 -30 97 -78 141
-107 44 -30 114 -78 155 -109 41 -30 92 -63 112 -74 20 -11 56 -33 80 -48 66
-42 79 -50 128 -75 25 -12 52 -27 60 -34 20 -16 224 -124 335 -178 50 -24 142
-63 205 -86 63 -23 144 -52 180 -65 60 -22 221 -71 315 -97 22 -5 51 -14 65
-18 14 -4 50 -13 80 -19 30 -6 102 -22 160 -36 58 -13 132 -28 165 -34 347
-61 1075 -88 1380 -52 50 6 133 16 185 21 125 14 199 24 420 61 252 42 276 46
345 62 33 8 105 24 160 37 180 40 537 147 630 190 11 4 52 20 90 35 39 14 97
38 130 54 33 16 101 47 150 71 114 53 186 90 205 104 8 7 41 25 72 40 31 15
62 34 69 42 6 8 15 14 20 14 5 0 37 19 70 43 33 23 68 47 77 52 9 6 35 23 57
38 152 103 171 122 161 163 -6 21 -12 24 -48 24 -33 0 -336 -94 -449 -139 -13
-5 -71 -24 -129 -41 -58 -18 -136 -43 -175 -55 -38 -12 -97 -30 -130 -40 -33
-9 -71 -21 -85 -25 -59 -19 -267 -60 -425 -84 -156 -24 -478 -53 -735 -66
-540 -29 -1106 11 -1515 105 -194 45 -564 157 -695 210 -36 15 -78 32 -95 38
-16 7 -71 33 -121 59 -51 27 -100 48 -109 48 -9 0 -29 8 -43 18 -15 10 -45 26
-67 34 -22 9 -103 55 -180 102 -77 47 -146 86 -153 86 -8 0 -32 15 -55 33 -23
19 -60 44 -82 57 -106 63 -348 263 -353 292 -2 10 -11 18 -21 18 -22 0 -295
273 -299 299 -2 10 -11 21 -21 24 -24 6 -285 337 -376 477 -70 107 -91 143
-132 219 -25 47 -49 91 -54 97 -5 6 -36 64 -69 130 -87 170 -193 439 -250 634
-12 41 -26 89 -32 105 -58 174 -138 650 -157 935 -30 442 -23 628 44 1105 22
161 65 361 111 514 19 63 34 119 34 125 0 6 8 27 19 46 10 19 26 60 36 90 10
30 27 73 38 95 25 50 106 245 158 385 86 226 221 528 290 645 16 28 43 75 60
105 16 30 41 73 54 95 14 22 28 47 31 55 4 8 12 21 18 29 6 7 25 37 41 66 28
49 126 199 175 270 12 17 30 44 41 60 22 36 77 110 139 189 25 32 54 72 65 90
23 37 39 58 148 194 129 159 140 172 188 226 25 28 76 87 114 131 37 44 95
109 128 145 80 87 409 419 444 449 16 13 69 60 118 106 50 45 126 111 170 146
44 34 107 86 140 114 33 28 82 67 110 85 27 19 77 57 110 85 58 49 198 148
270 191 19 11 45 29 57 41 13 11 30 23 38 26 8 4 56 35 107 69 50 35 134 89
185 121 51 32 115 73 142 90 27 18 72 45 100 61 28 16 101 59 163 95 61 36
144 84 184 106 40 22 96 54 125 70 29 17 141 76 249 133 179 94 278 140 640
297 358 155 472 241 536 403 19 47 23 76 23 167 0 136 -10 172 -74 257 -75
100 -141 145 -273 190 -78 26 -305 34 -412 14z"/>
<path d="M12268 11180 c-142 -43 -720 -439 -1013 -694 -288 -251 -638 -603
-890 -895 -137 -159 -165 -192 -197 -239 -30 -43 -30 -44 -11 -65 60 -67 194
-291 251 -418 16 -35 65 -174 110 -309 64 -193 87 -281 111 -415 42 -236 45
-291 31 -620 -13 -331 -36 -537 -80 -727 -40 -170 -49 -299 -23 -348 15 -28
27 -37 68 -47 78 -21 168 -8 230 32 134 88 471 482 734 859 140 201 193 292
314 543 230 475 362 880 431 1318 14 88 32 198 41 245 46 266 48 300 46 729
-2 448 -8 525 -61 791 -16 80 -32 173 -36 208 -7 64 -9 66 -56 52z"/>
<path d="M14836 10234 c-67 -16 -205 -96 -262 -151 -46 -45 -106 -133 -136
-200 -17 -39 -22 -73 -26 -180 -4 -129 -3 -135 31 -250 120 -395 149 -596 181
-1233 13 -248 13 -341 1 -710 -8 -234 -19 -459 -24 -500 -25 -186 -114 -536
-226 -885 -35 -110 -82 -264 -105 -342 -26 -90 -66 -194 -107 -280 -36 -76
-85 -187 -108 -248 -125 -324 -349 -798 -447 -946 -111 -169 -486 -677 -599
-813 -227 -272 -549 -590 -819 -808 -52 -42 -133 -110 -180 -152 -132 -116
-398 -303 -744 -521 -94 -60 -531 -273 -731 -357 -257 -108 -795 -283 -1129
-368 -105 -27 -243 -62 -306 -78 -123 -32 -465 -91 -670 -117 -69 -8 -192 -24
-275 -35 -82 -11 -204 -27 -270 -35 -266 -35 -1202 -30 -1655 9 -96 8 -242 19
-325 25 -222 15 -877 129 -1220 211 -220 53 -496 130 -640 180 -306 105 -293
77 86 -193 145 -103 318 -222 384 -263 99 -63 572 -304 785 -401 30 -14 127
-58 215 -98 211 -97 346 -142 668 -225 344 -89 545 -131 842 -175 422 -62 470
-65 1099 -65 607 0 668 3 1076 56 107 14 222 31 255 39 33 7 101 19 150 25
358 47 903 205 1442 421 371 148 752 330 968 463 55 34 132 79 170 101 214
117 691 470 981 724 302 264 902 892 1106 1158 167 216 472 663 575 843 258
447 534 1064 658 1468 181 589 269 956 295 1232 14 147 25 245 50 450 41 327
36 1049 -10 1495 -25 244 -68 480 -114 640 -20 66 -56 205 -82 310 -122 500
-247 706 -471 775 -78 24 -245 26 -337 4z"/>
<path d="M1483 10220 c-107 -32 -219 -97 -261 -155 -132 -175 -238 -443 -322
-810 -22 -99 -52 -223 -66 -275 -30 -116 -76 -396 -104 -625 -18 -151 -20
-230 -20 -715 0 -811 20 -1146 95 -1620 24 -151 48 -295 53 -320 25 -117 98
-390 142 -525 27 -82 65 -202 84 -265 103 -342 272 -672 541 -1050 45 -63 131
-184 191 -269 126 -178 227 -288 443 -483 169 -153 219 -191 456 -352 296
-202 458 -289 710 -383 245 -92 261 -97 294 -83 26 10 28 14 21 46 -5 20 -15
43 -22 52 -501 590 -718 895 -1024 1437 -162 288 -332 627 -411 820 -159 387
-289 830 -419 1431 -74 344 -79 424 -78 1309 0 586 3 707 17 800 9 61 26 173
37 250 27 187 120 622 186 875 77 297 87 357 82 480 -4 100 -6 109 -43 175
-78 140 -190 227 -332 259 -92 20 -172 19 -250 -4z"/>
</g>
</svg>
